<?xml version="1.0" standalone="no"?>
<!DOCTYPE svg PUBLIC "-//W3C//DTD SVG 20010904//EN"
 "http://www.w3.org/TR/2001/REC-SVG-20010904/DTD/svg10.dtd">
<svg version="1.0" xmlns="http://www.w3.org/2000/svg"
 width="500.000000pt" height="500.000000pt" viewBox="0 0 500.000000 500.000000"
 preserveAspectRatio="xMidYMid meet">
<metadata>
Created by potrace 1.11, written by Peter Selinger 2001-2013
</metadata>
<g transform="translate(0.000000,500.000000) scale(0.100000,-0.100000)"
fill="#000000" stroke="none">
<path d="M2308 4905 c-1 -1 -34 -6 -71 -10 -37 -3 -78 -8 -90 -11 -12 -2 -39
-6 -62 -9 -116 -17 -384 -94 -495 -142 -256 -112 -466 -239 -640 -386 -131
-111 -320 -315 -401 -432 -19 -27 -37 -52 -40 -55 -18 -16 -136 -222 -183
-320 -96 -201 -178 -461 -206 -655 -6 -44 -13 -93 -16 -110 -10 -57 -13 -430
-4 -505 14 -116 20 -157 31 -213 5 -29 12 -64 14 -79 3 -14 20 -80 39 -145
229 -794 854 -1420 1647 -1648 152 -44 248 -62 439 -84 91 -11 386 -11 467 0
32 4 81 10 108 14 28 3 95 15 150 27 929 191 1662 923 1863 1859 12 51 24 121
27 154 4 33 9 69 12 80 12 50 11 427 -2 530 -19 156 -23 175 -56 314 -65 267
-183 533 -340 769 -370 553 -1007 953 -1654 1037 -22 3 -69 9 -105 14 -61 8
-424 13 -432 6z m427 -138 c11 -3 45 -8 76 -11 31 -4 67 -9 80 -12 13 -2 39
-7 58 -10 18 -3 88 -21 155 -39 756 -207 1362 -804 1581 -1555 30 -106 50
-189 61 -265 2 -16 7 -43 10 -60 24 -142 24 -509 0 -632 -3 -11 -8 -43 -12
-70 -5 -26 -9 -50 -9 -53 -1 -3 -5 -23 -9 -45 -56 -289 -238 -674 -434 -920
-252 -315 -546 -536 -942 -708 -54 -24 -208 -73 -295 -96 -78 -20 -100 -24
-179 -36 -21 -4 -48 -9 -60 -11 -93 -18 -387 -24 -531 -11 -271 26 -526 98
-780 222 -464 226 -823 585 -1050 1050 -124 254 -195 505 -223 785 -8 88 -8
327 2 425 92 998 842 1826 1831 2021 19 4 45 8 110 19 17 3 66 8 110 11 44 4
81 8 83 9 5 5 344 -3 367 -8z"/>
<path d="M3468 3635 c-2 -1 -36 -5 -76 -9 -290 -24 -568 -179 -719 -398 -139
-202 -198 -411 -196 -703 2 -483 248 -860 654 -1003 84 -30 106 -35 219 -52
118 -18 406 -4 520 25 14 4 32 8 40 10 90 18 311 118 374 169 l26 21 1 285 c0
157 0 327 0 378 l-1 92 -293 0 -293 0 -2 -34 c-1 -18 2 -45 8 -60 l10 -26 215
0 215 0 -2 -287 -3 -287 -85 -43 c-181 -92 -328 -122 -565 -119 -197 3 -277
20 -411 86 -257 128 -428 395 -461 720 -13 134 -7 278 16 395 16 76 18 86 39
145 76 217 225 384 423 473 149 68 228 82 439 81 218 0 369 -43 529 -149 108
-71 118 -71 160 -2 27 44 35 32 -76 112 -118 87 -292 152 -453 170 -58 7 -247
14 -252 10z"/>
<path d="M824 2548 l1 -1063 60 0 c33 -1 67 1 76 3 15 3 17 47 17 465 0 254 1
469 1 477 1 24 322 21 367 -3 19 -10 108 -114 230 -269 109 -139 204 -260 211
-268 7 -8 78 -98 159 -200 80 -102 153 -189 161 -194 19 -10 173 -16 173 -6 0
6 -65 90 -165 215 -30 38 -73 92 -325 410 -113 143 -222 278 -242 301 -44 48
-46 54 -15 54 45 0 177 39 242 71 163 82 276 222 310 385 12 57 12 180 0 250
-39 226 -196 362 -485 420 -19 4 -202 9 -406 11 l-371 5 1 -1064z m686 928
c317 -38 475 -232 425 -522 -30 -172 -144 -294 -330 -352 -106 -33 -113 -34
-377 -37 -248 -3 -248 -3 -249 18 -3 108 0 888 4 894 6 9 451 8 527 -1z"/>
</g>
</svg>
